<svg width="463" height="128" viewBox="0 0 463 128" fill="none" xmlns="http://www.w3.org/2000/svg">
<mask id="mask0_78_211" style="mask-type:luminance" maskUnits="userSpaceOnUse" x="0" y="0" width="463" height="128">
<path d="M0 0H462.943V127.339H0V0Z" fill="white"/>
</mask>
<g mask="url(#mask0_78_211)">
<path d="M0 0H462.943V127.339H0V0Z" stroke="white" stroke-width="5.99788"/>
</g>
<mask id="mask1_78_211" style="mask-type:luminance" maskUnits="userSpaceOnUse" x="12" y="11" width="220" height="105">
<path d="M12.5039 11.9736H231.415V115.484H12.5039V11.9736Z" fill="white"/>
</mask>
<g mask="url(#mask1_78_211)">
<path d="M12.5039 11.9736H231.415V115.484H12.5039V11.9736Z" fill="white"/>
</g>
<path d="M59.2754 79.8566H63.6452V45.0806H59.2754V79.8566Z" fill="black"/>
<path d="M77.5527 79.8566H81.8757V52.6326L101.1 79.8566H105.173V45.0806H100.902V72.3045L81.6777 45.0806H77.5527V79.8566Z" fill="black"/>
<path d="M119.07 79.8566H131.091C141.773 79.8566 148.924 72.7524 148.924 62.4712C148.924 52.1847 141.773 45.0806 131.091 45.0806H119.07V79.8566ZM123.44 75.6847V49.2576H130.893C138.992 49.2576 144.456 54.5702 144.456 62.4712C144.456 70.367 139.039 75.6847 131.091 75.6847H123.44Z" fill="black"/>
<path d="M157.455 79.8566H162.674L172.658 65.3983L175.538 69.5754L182.643 79.8566H187.809L175.34 62.0233L187.215 45.0806H182.096L175.59 54.4243L172.658 58.7941L163.169 45.0806H157.955L169.877 62.0702L157.455 79.8566Z" fill="black"/>
<path d="M264.414 80.1243H274.346V62.4889L281.055 71.8796H287.56L294.216 62.541V80.1243H304.154V45.3535H296.008L284.284 61.8952L272.607 45.3535H264.414V80.1243Z" fill="white"/>
<path d="M326.455 80.8691C335.84 80.8691 341.653 75.1556 341.653 65.8171V45.3535H331.669V65.1712C331.669 69.2962 329.929 71.4785 326.455 71.4785C322.976 71.4785 321.236 69.2962 321.236 65.1712V45.3535H311.205V65.8171C311.205 75.1556 317.064 80.8691 326.455 80.8691Z" fill="white"/>
<path d="M361.227 80.8688C369.867 80.8688 374.987 76.7959 374.987 69.9417C374.987 64.1761 371.258 60.8011 362.815 58.9105C358.346 57.9209 356.706 56.8271 356.706 55.0355C356.706 53.348 358.195 52.3063 360.529 52.3063C363.31 52.3063 364.904 53.749 364.904 56.3792H374.341C374.341 49.2282 368.878 44.6084 360.331 44.6084C352.133 44.6084 347.07 48.6813 347.07 55.2386C347.07 61.098 350.893 64.723 358.742 66.2126C362.966 67.0615 365.003 68.3532 365.003 70.3376C365.003 72.0771 363.508 73.0719 361.076 73.0719C358.195 73.0719 356.508 71.5303 356.508 68.848H346.82C346.82 76.348 352.185 80.8688 361.227 80.8688Z" fill="white"/>
<path d="M380.498 80.1243H390.529V45.3535H380.498V80.1243Z" fill="white"/>
<path d="M414.127 80.8688C423.71 80.8688 430.965 75.0563 432.455 66.2126H422.273C421.028 69.4938 418.101 71.5824 414.325 71.5824C409.455 71.5824 406.075 67.9522 406.075 62.7386C406.075 57.473 409.507 53.8949 414.424 53.8949C418.049 53.8949 421.08 55.9313 422.122 59.0615H432.257C430.465 50.2699 423.314 44.6084 414.028 44.6084C403.294 44.6084 395.893 52.0094 395.893 62.7386C395.893 73.4678 403.294 80.8688 414.127 80.8688Z" fill="white"/>
</svg>
