<svg width="463" height="128" viewBox="0 0 463 128" fill="none" xmlns="http://www.w3.org/2000/svg">
<mask id="mask0_225_67" style="mask-type:luminance" maskUnits="userSpaceOnUse" x="0" y="0" width="463" height="128">
<path d="M0 0H462.943V127.339H0V0Z" fill="white"/>
</mask>
<g mask="url(#mask0_225_67)">
<path d="M0 0H462.943V127.339H0V0Z" stroke="white" stroke-width="5.99788"/>
</g>
<mask id="mask1_225_67" style="mask-type:luminance" maskUnits="userSpaceOnUse" x="12" y="11" width="220" height="105">
<path d="M12.5039 11.9795H231.415V115.49H12.5039V11.9795Z" fill="white"/>
</mask>
<g mask="url(#mask1_225_67)">
<path d="M12.5039 11.9795H231.415V115.49H12.5039V11.9795Z" fill="white"/>
</g>
<path d="M59.2754 79.8595H63.6452V45.0835H59.2754V79.8595Z" fill="black"/>
<path d="M77.5527 79.8595H81.8757V52.6356L101.1 79.8595H105.173V45.0835H100.902V72.3075L81.6777 45.0835H77.5527V79.8595Z" fill="black"/>
<path d="M119.07 79.8595H131.091C141.773 79.8595 148.924 72.7554 148.924 62.4741C148.924 52.1877 141.773 45.0835 131.091 45.0835H119.07V79.8595ZM123.44 75.6877V49.2606H130.893C138.992 49.2606 144.456 54.5731 144.456 62.4741C144.456 70.37 139.039 75.6877 131.091 75.6877H123.44Z" fill="black"/>
<path d="M157.455 79.8595H162.674L172.658 65.4012L175.538 69.5783L182.643 79.8595H187.809L175.34 62.0262L187.215 45.0835H182.096L175.59 54.4272L172.658 58.797L163.169 45.0835H157.955L169.877 62.0731L157.455 79.8595Z" fill="black"/>
<path d="M259.369 80.547C268.01 80.547 273.13 76.4741 273.13 69.62C273.13 63.8543 269.4 60.4793 260.958 58.5887C256.489 57.5991 254.848 56.5054 254.848 54.7137C254.848 53.0262 256.338 51.9845 258.671 51.9845C261.452 51.9845 263.046 53.4272 263.046 56.0575H272.484C272.484 48.9064 267.02 44.2866 258.473 44.2866C250.275 44.2866 245.213 48.3595 245.213 54.9168C245.213 60.7762 249.036 64.4012 256.885 65.8908C261.109 66.7397 263.145 68.0314 263.145 70.0158C263.145 71.7554 261.65 72.7502 259.218 72.7502C256.338 72.7502 254.65 71.2085 254.65 68.5262H244.963C244.963 76.0262 250.327 80.547 259.369 80.547Z" fill="white"/>
<path d="M278.643 80.1268H288.674V71.533H293.294C302.137 71.533 307.752 66.4185 307.752 58.4185C307.752 50.4185 302.137 45.356 293.294 45.356H278.643V80.1268ZM288.575 63.1372V53.7987H292.351C295.679 53.7987 297.617 55.5851 297.617 58.4705C297.617 61.3976 295.679 63.1372 292.351 63.1372H288.575Z" fill="white"/>
<path d="M329.505 80.8717C340.583 80.8717 348.432 73.3717 348.432 62.7415C348.432 52.1113 340.583 44.6113 329.505 44.6113C318.427 44.6113 310.578 52.1113 310.578 62.7415C310.578 73.3717 318.427 80.8717 329.505 80.8717ZM320.76 62.7415C320.76 57.5228 324.391 53.8978 329.505 53.8978C334.672 53.8978 338.25 57.5228 338.25 62.7415C338.25 67.9551 334.672 71.5853 329.505 71.5853C324.391 71.5853 320.76 67.9551 320.76 62.7415Z" fill="white"/>
<path d="M353.846 80.1268H363.877V70.2414H367.653L372.622 80.1268H383.997L377.59 68.4028C381.268 66.3664 383.351 62.6893 383.351 57.8247C383.351 50.1216 378.137 45.356 369.689 45.356H353.846V80.1268ZM363.679 62.2414V53.5487H368.351C371.528 53.5487 373.268 55.0903 373.268 57.8716C373.268 60.6528 371.528 62.2414 368.351 62.2414H363.679Z" fill="white"/>
<path d="M397.908 80.1268H407.892V54.6424H418.47V45.356H387.324V54.6424H397.908V80.1268Z" fill="white"/>
<path d="M436.004 80.8717C444.645 80.8717 449.764 76.7988 449.764 69.9447C449.764 64.179 446.035 60.804 437.592 58.9134C433.124 57.9238 431.483 56.8301 431.483 55.0384C431.483 53.3509 432.973 52.3092 435.306 52.3092C438.087 52.3092 439.681 53.752 439.681 56.3822H449.118C449.118 49.2311 443.655 44.6113 435.108 44.6113C426.91 44.6113 421.848 48.6842 421.848 55.2415C421.848 61.1009 425.671 64.7259 433.52 66.2155C437.743 67.0645 439.78 68.3561 439.78 70.3405C439.78 72.0801 438.285 73.0749 435.853 73.0749C432.973 73.0749 431.285 71.5332 431.285 68.8509H421.598C421.598 76.3509 426.962 80.8717 436.004 80.8717Z" fill="white"/>
</svg>
